<?xml version="1.0" standalone="no"?>
<!DOCTYPE svg PUBLIC "-//W3C//DTD SVG 20010904//EN"
 "http://www.w3.org/TR/2001/REC-SVG-20010904/DTD/svg10.dtd">
<svg version="1.0" xmlns="http://www.w3.org/2000/svg"
 width="300.000000pt" height="78.000000pt" viewBox="0 0 300.000000 78.000000"
 preserveAspectRatio="xMidYMid meet">
<metadata>
Created by potrace 1.10, written by Peter Selinger 2001-2011
</metadata>
<g transform="translate(0.000000,78.000000) scale(0.100000,-0.100000)"
fill="#000000" stroke="none">
<path d="M987 736 c-123 -51 -187 -115 -195 -195 -5 -59 9 -88 53 -107 40 -16
79 -19 70 -4 -3 6 -18 10 -33 10 -46 0 -72 26 -72 71 0 52 18 85 73 136 72 66
140 97 218 97 37 1 65 4 62 9 -10 16 -119 6 -176 -17z"/>
<path d="M1229 731 c-52 -34 -140 -125 -229 -236 -82 -104 -124 -149 -181
-195 l-47 -37 -83 28 c-46 16 -100 29 -120 29 -74 0 -92 -51 -29 -82 39 -20
153 -24 209 -8 26 7 48 5 90 -7 111 -33 216 -18 272 38 22 22 25 71 5 88 -12
10 -13 8 -9 -9 8 -29 -38 -75 -94 -96 -31 -12 -59 -15 -101 -11 -93 10 -98 15
-55 46 21 15 68 60 104 99 37 40 73 72 81 72 7 0 47 16 87 35 90 43 214 160
226 213 14 67 -48 83 -126 33z m109 -8 c2 -12 -3 -35 -12 -50 -15 -29 -92
-110 -133 -138 -36 -25 -144 -77 -150 -72 -9 10 169 229 210 258 47 34 80 35
85 2z m-665 -446 c41 -13 63 -25 58 -30 -17 -17 -169 -11 -196 7 -31 20 -32
34 -2 45 25 11 45 7 140 -22z"/>
<path d="M1636 465 c-18 -19 -25 -40 -28 -85 -6 -89 -61 -150 -94 -105 -14 19
-10 37 18 77 21 30 22 38 8 38 -22 0 -60 -50 -60 -78 0 -58 57 -79 117 -42 44
27 55 51 47 110 -8 58 13 100 48 100 20 0 20 -1 5 -18 -21 -23 -21 -32 -3 -32
16 0 31 34 21 50 -12 19 -56 10 -79 -15z"/>
<path d="M1867 479 c-26 -15 -47 -70 -47 -122 0 -66 -54 -119 -88 -85 -17 17
-15 31 13 73 30 43 26 55 -10 31 -40 -26 -50 -64 -27 -95 31 -42 78 -41 125 3
24 23 27 32 27 95 0 71 14 101 46 101 12 0 12 -4 2 -20 -16 -25 -2 -38 19 -18
34 35 -14 64 -60 37z"/>
<path d="M2034 471 c-45 -27 -103 -100 -115 -143 -11 -44 1 -78 30 -78 47 0
171 137 171 190 0 50 -34 63 -86 31z m72 -33 c-10 -51 -98 -153 -148 -171 -49
-18 8 90 85 161 57 51 72 54 63 10z"/>
<path d="M2275 463 c-15 -16 -41 -46 -57 -68 -17 -23 -4 -12 31 25 33 36 60
60 61 55 0 -6 -5 -16 -11 -22 -6 -6 -8 -17 -4 -24 10 -15 35 16 35 43 0 26
-23 22 -55 -9z"/>
<path d="M2412 473 c-46 -22 -112 -112 -119 -161 -7 -51 14 -70 57 -52 44 18
127 114 142 162 11 36 10 42 -7 54 -24 18 -32 17 -73 -3z m78 -16 c0 -41 -88
-154 -142 -183 -42 -22 -44 0 -6 62 52 88 148 166 148 121z"/>
<path d="M1216 403 c-48 -65 -56 -83 -54 -113 4 -47 25 -49 82 -6 l46 36 0
-29 c0 -62 46 -53 130 25 33 31 60 60 60 65 0 4 -24 -15 -52 -43 -52 -49 -105
-84 -115 -75 -7 8 26 66 68 120 38 47 48 80 30 91 -5 3 -31 -24 -59 -60 -50
-65 -144 -154 -163 -154 -19 0 3 44 52 109 47 61 59 93 40 105 -5 3 -34 -29
-65 -71z"/>
<path d="M2148 381 c-56 -85 -68 -114 -49 -125 9 -6 81 76 85 97 1 7 12 31 24
55 21 39 22 63 4 61 -4 0 -33 -40 -64 -88z"/>
<path d="M1323 100 c-3 -84 15 -95 19 -12 l3 57 23 -42 c12 -24 24 -43 27 -43
2 0 15 19 29 43 l26 42 0 -57 c0 -32 5 -58 10 -58 6 0 10 30 10 70 0 83 -14
91 -50 28 l-23 -41 -25 41 c-35 60 -47 54 -49 -28z"/>
<path d="M1520 108 c-14 -35 -26 -66 -28 -70 -2 -5 1 -8 6 -8 6 0 21 27 34 60
12 32 25 56 29 52 3 -4 14 -31 25 -59 16 -46 34 -70 34 -45 0 23 -50 127 -62
130 -8 1 -23 -22 -38 -60z"/>
<path d="M1650 100 c0 -45 4 -70 11 -70 8 0 10 17 7 50 -3 28 -2 50 2 50 4 0
23 -22 41 -50 19 -27 37 -50 42 -50 4 0 7 17 7 39 0 21 3 53 6 70 4 19 2 31
-4 31 -6 0 -12 -24 -14 -52 l-3 -53 -38 53 c-22 28 -43 52 -48 52 -5 0 -9 -31
-9 -70z"/>
</g>
</svg>
